G04 DipTrace 3.1.0.1*
G04 Bottom.gbr*
%MOIN*%
G04 #@! TF.FileFunction,Copper,L2,Bot*
G04 #@! TF.Part,Single*
G04 #@! TA.AperFunction,Conductor*
%ADD13C,0.012992*%
G04 #@! TA.AperFunction,ComponentPad*
%ADD14R,0.059055X0.059055*%
%ADD15C,0.059055*%
%ADD18R,0.066929X0.066929*%
%ADD19C,0.066929*%
G04 #@! TA.AperFunction,ViaPad*
%ADD22C,0.04*%
%FSLAX26Y26*%
G04*
G70*
G90*
G75*
G01*
G04 Bottom*
%LPD*%
X1316349Y1575810D2*
D13*
Y1863507D1*
Y1987324D1*
X1290364Y2013310D1*
X1188357D1*
X1488357Y613310D2*
X1613357Y738310D1*
Y1025810D1*
Y1125810D2*
X1759085Y1271538D1*
Y1575810D1*
X1613357Y1025810D2*
Y1125810D1*
X1763357Y1263310D2*
X1759085Y1267581D1*
Y1271538D1*
X1425857Y788310D2*
X1388357Y750810D1*
Y613310D1*
X2175857Y600810D2*
X2084420Y692247D1*
X1992294D1*
X1913357Y613310D1*
X1962373Y1825810D2*
Y1274825D1*
X1913357Y1225810D1*
X2001861Y1725810D2*
Y1214314D1*
X1913357Y1125810D1*
Y1025810D2*
X1798570Y1140597D1*
Y1775810D1*
X1188357Y1913310D2*
X588357D1*
X1250877Y1938310D2*
Y1875829D1*
X1188357Y1813310D1*
X1913357Y1325810D2*
Y1938310D1*
X2175857Y2200810D1*
D22*
X1316349Y1575810D3*
Y1863507D3*
X1759085Y1575810D3*
X1425857Y788310D3*
X1250877Y1938310D3*
X1962373Y1825810D3*
X2001861Y1725810D3*
X1798570Y1775810D3*
X1763357Y1263310D3*
D14*
X1613357Y1325810D3*
D15*
Y1225810D3*
Y1125810D3*
Y1025810D3*
X1913357D3*
Y1125810D3*
Y1225810D3*
Y1325810D3*
D14*
X588357Y2113310D3*
D15*
Y2013310D3*
Y1913310D3*
Y1813310D3*
Y1713310D3*
Y1613310D3*
Y1513310D3*
Y1413310D3*
Y1313310D3*
Y1213310D3*
Y1113310D3*
Y1013310D3*
Y913310D3*
Y813310D3*
Y713310D3*
X1188357D3*
Y813310D3*
Y913310D3*
Y1013310D3*
Y1113310D3*
Y1213310D3*
Y1313310D3*
Y1413310D3*
Y1513310D3*
Y1613310D3*
Y1713310D3*
Y1813310D3*
Y1913310D3*
Y2013310D3*
Y2113310D3*
D14*
X2175857Y600810D3*
Y2200810D3*
X2875857Y600810D3*
Y2200810D3*
D18*
X1388357Y613310D3*
D19*
X1488357D3*
D18*
X1913357D3*
D19*
X2013357D3*
M02*
