G04 DipTrace 3.1.0.1*
G04 BottomMask.gbr*
%MOIN*%
G04 #@! TF.FileFunction,Soldermask,Bot*
G04 #@! TF.Part,Single*
%ADD24C,0.065*%
%ADD34C,0.074929*%
%ADD36R,0.074929X0.074929*%
%ADD42C,0.067055*%
%ADD44R,0.067055X0.067055*%
%FSLAX26Y26*%
G04*
G70*
G90*
G75*
G01*
G04 BotMask*
%LPD*%
D44*
X1613357Y1325810D3*
D42*
Y1225810D3*
Y1125810D3*
Y1025810D3*
X1913357D3*
Y1125810D3*
Y1225810D3*
Y1325810D3*
D44*
X588357Y2113310D3*
D42*
Y2013310D3*
Y1913310D3*
Y1813310D3*
Y1713310D3*
Y1613310D3*
Y1513310D3*
Y1413310D3*
Y1313310D3*
Y1213310D3*
Y1113310D3*
Y1013310D3*
Y913310D3*
Y813310D3*
Y713310D3*
X1188357D3*
Y813310D3*
Y913310D3*
Y1013310D3*
Y1113310D3*
Y1213310D3*
Y1313310D3*
Y1413310D3*
Y1513310D3*
Y1613310D3*
Y1713310D3*
Y1813310D3*
Y1913310D3*
Y2013310D3*
Y2113310D3*
D24*
X588357Y2213310D3*
X1188357D3*
Y613310D3*
X588357D3*
D44*
X2175857Y600810D3*
Y2200810D3*
X2875857Y600810D3*
Y2200810D3*
D36*
X1388357Y613310D3*
D34*
X1488357D3*
D36*
X1913357D3*
D34*
X2013357D3*
M02*
