M48
INCH
T01C0.0191
T02C0.0354
T03C0.0433
T04C0.065
%
T01
X+013163Y+015758
X+013163Y+018635
X+012509Y+019383
X+017986Y+017758
X+019624Y+018258
X+020019Y+017258
X+017591Y+015758
X+017634Y+012633
X+014259Y+007883
T02
X+016134Y+013258
X+016134Y+012258
X+016134Y+011258
X+016134Y+010258
X+019134Y+010258
X+019134Y+011258
X+019134Y+012258
X+019134Y+013258
X+011884Y+013133
X+011884Y+014133
X+011884Y+015133
X+011884Y+016133
X+011884Y+017133
X+011884Y+018133
X+011884Y+019133
X+011884Y+020133
X+011884Y+021133
X+005884Y+021133
X+005884Y+020133
X+005884Y+019133
X+005884Y+018133
X+005884Y+017133
X+005884Y+016133
X+005884Y+015133
X+005884Y+014133
X+005884Y+013133
X+005884Y+012133
X+005884Y+011133
X+005884Y+010133
X+005884Y+009133
X+005884Y+008133
X+005884Y+007133
X+011884Y+007133
X+011884Y+008133
X+011884Y+009133
X+011884Y+010133
X+011884Y+011133
X+011884Y+012133
X+021759Y+006008
X+028759Y+006008
X+028759Y+022008
X+021759Y+022008
T03
X+013884Y+006133
X+014884Y+006133
X+019134Y+006133
X+020134Y+006133
T04
X+005884Y+022133
X+011884Y+022133
X+011884Y+006133
X+005884Y+006133
T00
M30
