G04 DipTrace 3.1.0.1*
G04 Top.gbr*
%MOIN*%
G04 #@! TF.FileFunction,Copper,L1,Top*
G04 #@! TF.Part,Single*
G04 #@! TA.AperFunction,Conductor*
%ADD13C,0.012992*%
G04 #@! TA.AperFunction,ComponentPad*
%ADD14R,0.059055X0.059055*%
%ADD15C,0.059055*%
%ADD16R,0.059055X0.051181*%
%ADD17R,0.07874X0.023622*%
G04 #@! TA.AperFunction,ComponentPad*
%ADD18R,0.066929X0.066929*%
%ADD19C,0.066929*%
%ADD20R,0.023622X0.07874*%
%ADD21R,0.051181X0.059055*%
G04 #@! TA.AperFunction,ViaPad*
%ADD22C,0.04*%
%FSLAX26Y26*%
G04*
G70*
G90*
G75*
G01*
G04 Top*
%LPD*%
X1500857Y1875810D2*
D13*
X1437373D1*
Y1863507D1*
X1388357D1*
X1316349Y1575810D2*
X1500857D1*
X1316349Y1863507D2*
X638554D1*
X588357Y1813310D1*
X1388357Y1863507D2*
X1316349D1*
X1759085Y1575810D2*
X1870936D1*
X1613357Y1025810D2*
X1551845Y964298D1*
X1525857D1*
X1401841D1*
X1375857Y990282D1*
Y1075810D1*
X1870936Y1575810D2*
X2073888D1*
X2099873Y1601794D1*
Y1863507D1*
X2538554D1*
X2875857Y2200810D1*
X2025857Y1863507D2*
X2099873D1*
X1870936Y1875810D2*
Y1870495D1*
X2025857D1*
Y1863507D1*
X1525857Y1075810D2*
Y964298D1*
X1488357Y613310D2*
X1624677D1*
X1650660Y639293D1*
Y775810D1*
X1763357Y1263310D2*
X1850857Y1175810D1*
X2050857D1*
Y1238507D1*
X1525857D2*
Y1213310D1*
X1613357Y1125810D1*
X1425857Y863211D2*
Y788310D1*
X1475857D1*
Y863211D1*
X1613357Y1225810D2*
X1662373Y1176794D1*
Y948058D1*
X1636388Y922073D1*
X1525857D1*
Y863211D1*
X1575857Y775810D2*
Y813211D1*
X1525857Y863211D1*
X2875857Y600810D2*
X2784420Y692247D1*
X2092294D1*
X2013357Y613310D1*
X588357Y1713310D2*
X637377Y1762329D1*
X1373892D1*
X1437373Y1825810D1*
X1500857D1*
X1962373D2*
X1870936D1*
X2001861Y1725810D2*
X1870936D1*
X588357Y1513310D2*
X513357Y1588310D1*
Y1636345D1*
X539341Y1662329D1*
X1298109D1*
X1361589Y1725810D1*
X1500857D1*
X588357Y1613310D2*
X639337Y1562329D1*
X1224369D1*
X1250377Y1536322D1*
X1559715D1*
Y1775810D1*
X1500857D1*
X1798570D2*
X1870936D1*
X1250877Y1938310D2*
X1388357D1*
X1437373D1*
Y1925810D1*
X1500857D1*
X1870936D2*
X1929794D1*
X1942294Y1938310D1*
X2025857D1*
X1425857Y1075810D2*
Y1016951D1*
X1475857D1*
Y1075810D1*
X2025857Y1938310D2*
Y2050810D1*
X2175857Y2200810D1*
X1913357Y1325810D2*
X1962373D1*
X1974873Y1313310D1*
X2050857D1*
X1613357Y1325810D2*
X1913357D1*
X1525857Y1313310D2*
X1600857D1*
X1613357Y1325810D1*
X1475857Y1075810D2*
Y1313310D1*
X1525857D1*
D22*
X1316349Y1575810D3*
Y1863507D3*
X1759085Y1575810D3*
X1425857Y788310D3*
X1250877Y1938310D3*
X1962373Y1825810D3*
X2001861Y1725810D3*
X1798570Y1775810D3*
X1763357Y1263310D3*
D14*
X1613357Y1325810D3*
D15*
Y1225810D3*
Y1125810D3*
Y1025810D3*
X1913357D3*
Y1125810D3*
Y1225810D3*
Y1325810D3*
D14*
X588357Y2113310D3*
D15*
Y2013310D3*
Y1913310D3*
Y1813310D3*
Y1713310D3*
Y1613310D3*
Y1513310D3*
Y1413310D3*
Y1313310D3*
Y1213310D3*
Y1113310D3*
Y1013310D3*
Y913310D3*
Y813310D3*
Y713310D3*
X1188357D3*
Y813310D3*
Y913310D3*
Y1013310D3*
Y1113310D3*
Y1213310D3*
Y1313310D3*
Y1413310D3*
Y1513310D3*
Y1613310D3*
Y1713310D3*
Y1813310D3*
Y1913310D3*
Y2013310D3*
Y2113310D3*
D16*
X1525857Y1313310D3*
Y1238507D3*
X2050857Y1313310D3*
Y1238507D3*
X1388357Y1938310D3*
Y1863507D3*
X2025857Y1938310D3*
Y1863507D3*
D14*
X2175857Y600810D3*
Y2200810D3*
X2875857Y600810D3*
Y2200810D3*
D17*
X1500857Y1925810D3*
Y1875810D3*
Y1825810D3*
Y1775810D3*
Y1725810D3*
Y1675810D3*
Y1625810D3*
Y1575810D3*
X1870936D3*
Y1625810D3*
Y1675810D3*
Y1725810D3*
Y1775810D3*
Y1825810D3*
Y1875810D3*
Y1925810D3*
D18*
X1388357Y613310D3*
D19*
X1488357D3*
D18*
X1913357D3*
D19*
X2013357D3*
D20*
X1525857Y1075810D3*
X1475857D3*
X1425857D3*
X1375857D3*
Y863211D3*
X1425857D3*
X1475857D3*
X1525857D3*
D21*
X1575857Y775810D3*
X1650660D3*
M02*
