G75*
%MOIN*%
%OFA0B0*%
%FSLAX25Y25*%
%IPPOS*%
%LPD*%
%AMOC8*
5,1,8,0,0,1.08239X$1,22.5*
%
%ADD10R,0.05800X0.03792*%
%ADD11R,0.04737X0.05131*%
%ADD12OC8,0.10800*%
%ADD13C,0.07493*%
%ADD14C,0.08800*%
D10*
X0120540Y0139300D03*
X0120540Y0144300D03*
X0120540Y0149300D03*
X0120540Y0154300D03*
X0143060Y0154300D03*
X0143060Y0149300D03*
X0143060Y0144300D03*
X0143060Y0139300D03*
D11*
X0143454Y0126800D03*
X0150146Y0126800D03*
X0125146Y0126800D03*
X0118454Y0126800D03*
X0138454Y0056800D03*
X0145146Y0056800D03*
D12*
X0026800Y0031800D03*
X0096800Y0031800D03*
X0116800Y0186800D03*
X0136800Y0186800D03*
X0096800Y0191800D03*
X0026800Y0191800D03*
D13*
X0221131Y0185698D02*
X0227824Y0185698D01*
D14*
X0227824Y0175855D02*
X0219824Y0175855D01*
X0219824Y0166013D02*
X0227824Y0166013D01*
X0227824Y0156170D02*
X0219824Y0156170D01*
X0219824Y0146328D02*
X0227824Y0146328D01*
X0227824Y0136485D02*
X0219824Y0136485D01*
X0219824Y0126643D02*
X0227824Y0126643D01*
X0227824Y0116800D02*
X0219824Y0116800D01*
X0219824Y0106957D02*
X0227824Y0106957D01*
X0227824Y0097115D02*
X0219824Y0097115D01*
X0219824Y0087272D02*
X0227824Y0087272D01*
X0227824Y0077430D02*
X0219824Y0077430D01*
X0219824Y0067587D02*
X0227824Y0067587D01*
X0227824Y0057745D02*
X0219824Y0057745D01*
X0219824Y0047902D02*
X0227824Y0047902D01*
X0174800Y0047902D02*
X0166800Y0047902D01*
X0166800Y0057745D02*
X0174800Y0057745D01*
X0174800Y0067587D02*
X0166800Y0067587D01*
X0166800Y0077430D02*
X0174800Y0077430D01*
X0174800Y0087272D02*
X0166800Y0087272D01*
X0166800Y0097115D02*
X0174800Y0097115D01*
X0174800Y0106957D02*
X0166800Y0106957D01*
X0166800Y0116800D02*
X0174800Y0116800D01*
X0174800Y0126643D02*
X0166800Y0126643D01*
X0166800Y0136485D02*
X0174800Y0136485D01*
X0174800Y0146328D02*
X0166800Y0146328D01*
X0166800Y0156170D02*
X0174800Y0156170D01*
X0174800Y0166013D02*
X0166800Y0166013D01*
X0166800Y0175855D02*
X0174800Y0175855D01*
X0174800Y0185698D02*
X0166800Y0185698D01*
M02*
