%
M48
M72
T01C0.04000
T02C0.05200
%
T01
X26800Y31800
X96800Y31800
X166800Y47902
X166800Y57745
X166800Y67587
X166800Y77430
X166800Y87272
X166800Y97115
X166800Y106957
X166800Y116800
X166800Y126643
X166800Y136485
X166800Y146328
X166800Y156170
X166800Y166013
X166800Y175855
X166800Y185698
X227824Y185698
X227824Y175855
X227824Y166013
X227824Y156170
X227824Y146328
X227824Y136485
X227824Y126643
X227824Y116800
X227824Y106957
X227824Y97115
X227824Y87272
X227824Y77430
X227824Y67587
X227824Y57745
X227824Y47902
X96800Y191800
X26800Y191800
T02
X116800Y186800
X136800Y186800
M30
