M48
INCH
T01C0.0191
T02C0.0354
T03C0.0906
%
T01
X+015826Y+010378
T02
X+007520Y+009998
X+007520Y+009014
X+007520Y+008226
X+007520Y+007242
X+009884Y+007378
X+009884Y+006378
X+009884Y+008378
X+009884Y+009378
X+009884Y+010378
X+009884Y+011378
X+012884Y+011378
X+012884Y+010378
X+012884Y+009378
X+012884Y+008378
X+012884Y+007378
X+012884Y+006378
X+019384Y+007378
X+019384Y+008362
X+019384Y+009149
X+019384Y+010134
T03
X+006338Y+011207
X+006338Y+006033
X+020565Y+006169
X+020565Y+011342
T00
M30
