G04 DipTrace 3.1.0.1*
G04 TopMask.gbr*
%MOIN*%
G04 #@! TF.FileFunction,Soldermask,Top*
G04 #@! TF.Part,Single*
%ADD28C,0.067087*%
%ADD30R,0.067087X0.067087*%
%ADD32R,0.04937X0.033622*%
%ADD34C,0.137953*%
%ADD36C,0.071024*%
%ADD38R,0.071024X0.071024*%
%FSLAX26Y26*%
G04*
G70*
G90*
G75*
G01*
G04 TopMask*
%LPD*%
D38*
X751955Y999790D3*
D36*
Y901365D3*
Y822625D3*
Y724199D3*
D34*
X633845Y1120656D3*
Y603333D3*
D38*
X1938373Y737782D3*
D36*
Y836207D3*
Y914948D3*
Y1013373D3*
D34*
X2056483Y616916D3*
Y1134239D3*
D32*
X1438373Y1187782D3*
Y1112979D3*
X1528924Y1150381D3*
X1638373Y1137782D3*
Y1062979D3*
X1728924Y1100381D3*
X1438373Y987782D3*
Y912979D3*
X1528924Y950381D3*
X1638373Y937782D3*
Y862979D3*
X1728924Y900381D3*
X1438373Y737782D3*
Y662979D3*
X1528924Y700381D3*
X1638373Y687782D3*
Y612979D3*
X1728924Y650381D3*
D30*
X988373Y1137782D3*
D28*
Y1037782D3*
Y937782D3*
Y837782D3*
Y737782D3*
Y637782D3*
X1288373D3*
Y737782D3*
Y837782D3*
Y937782D3*
Y1037782D3*
Y1137782D3*
M02*
