%TF.GenerationSoftware,Novarm,DipTrace,3.1.0.1*%
%TF.CreationDate,2017-08-28T19:58:40+02:00*%
%FSLAX26Y26*%
%MOIN*%
%TF.FileFunction,Soldermask,Top*%
%TF.Part,Single*%
%ADD27C,0.059055*%
%ADD28C,0.043307*%
%ADD36C,0.058*%
%ADD38C,0.058*%
%ADD40O,0.16548X0.070992*%
%ADD42R,0.08674X0.055244*%
%ADD44C,0.067055*%
%ADD46R,0.067055X0.067055*%
%ADD48R,0.059181X0.067055*%
%ADD50R,0.08674X0.031622*%
%ADD52R,0.067055X0.059181*%
G75*
G01*
%LPD*%
D52*
X1094000Y1094000D3*
Y1019197D3*
X1744000Y994000D3*
Y919197D3*
X994000Y894000D3*
Y968803D3*
X1944000Y844000D3*
Y918803D3*
X1194000Y1368803D3*
Y1294000D3*
Y1594000D3*
Y1519197D3*
D50*
X1244000Y994000D3*
Y944000D3*
Y894000D3*
Y844000D3*
Y794000D3*
Y744000D3*
Y694000D3*
Y644000D3*
X1614079D3*
Y694000D3*
Y744000D3*
Y794000D3*
Y844000D3*
Y894000D3*
Y944000D3*
Y994000D3*
D48*
X994000Y744000D3*
X1068803D3*
X1044000Y644000D3*
X1118803D3*
X1844000Y744000D3*
X1769197D3*
X1844000Y644000D3*
X1769197D3*
D46*
X1294000Y1594000D3*
D44*
Y1494000D3*
Y1394000D3*
Y1294000D3*
X1594000D3*
Y1394000D3*
Y1494000D3*
Y1594000D3*
D42*
X644000Y1194000D3*
Y1292425D3*
Y1371165D3*
Y1469591D3*
D40*
X541638Y1107386D3*
Y1556205D3*
D27*
Y1243213D3*
Y1420378D3*
D42*
X644000Y594000D3*
Y692425D3*
Y771165D3*
Y869591D3*
D40*
X541638Y507386D3*
Y956205D3*
D28*
Y643213D3*
Y820378D3*
D38*
X794000Y1194000D3*
D36*
X1094000D3*
M02*
